<svg xmlns="http://www.w3.org/2000/svg" width="424" height="273.101" viewBox="0 0 424 273.101">
  <g id="Group_331" data-name="Group 331" transform="translate(1.525 311.266)">
    <g id="Group_326" data-name="Group 326" transform="translate(-1.025 -245.217)">
      <path id="Path_1054" data-name="Path 1054" d="M35.439-80.05a7.8,7.8,0,0,1-3.9-1.041L2.874-97.641a7.819,7.819,0,0,1-3.9-6.753v-33.1a7.819,7.819,0,0,1,3.9-6.753L31.54-160.8a7.821,7.821,0,0,1,7.8,0L68-144.248a7.818,7.818,0,0,1,3.9,6.753v33.1A7.818,7.818,0,0,1,68-97.641L39.338-81.091A7.8,7.8,0,0,1,35.439-80.05Zm0-79.593a5.6,5.6,0,0,0-2.8.748L3.973-142.345a5.615,5.615,0,0,0-2.8,4.85v33.1a5.615,5.615,0,0,0,2.8,4.85L32.639-82.994a5.616,5.616,0,0,0,5.6,0L66.9-99.545a5.615,5.615,0,0,0,2.8-4.85v-33.1a5.615,5.615,0,0,0-2.8-4.85L38.239-158.9A5.6,5.6,0,0,0,35.439-159.643Z" transform="translate(1.025 161.84)" fill="#b2dbf1" stroke="rgba(0,0,0,0)" stroke-width="1"/>
    </g>
    <g id="Group_327" data-name="Group 327" transform="translate(281.267 -146.234)">
      <path id="Path_1055" data-name="Path 1055" d="M666.969,121.079a5.767,5.767,0,0,1-2.886-.771l-20-11.548a5.789,5.789,0,0,1-2.887-5v-23.1a5.788,5.788,0,0,1,2.887-5l20-11.548a5.789,5.789,0,0,1,5.773,0l20,11.548a5.788,5.788,0,0,1,2.887,5v23.1a5.789,5.789,0,0,1-2.887,5l-20,11.548A5.768,5.768,0,0,1,666.969,121.079Zm0-55.536a3.574,3.574,0,0,0-1.787.478l-20,11.548a3.585,3.585,0,0,0-1.788,3.1v23.1a3.585,3.585,0,0,0,1.788,3.1l20,11.548a3.585,3.585,0,0,0,3.575,0l20-11.548a3.585,3.585,0,0,0,1.788-3.1v-23.1a3.585,3.585,0,0,0-1.788-3.1l-20-11.548A3.576,3.576,0,0,0,666.969,65.544Z" transform="translate(-641.195 -63.347)" fill="#b2dbf1" stroke="rgba(0,0,0,0)" stroke-width="1"/>
    </g>
    <g id="Group_328" data-name="Group 328" transform="translate(275.638 -178.852)">
      <path id="Path_1056" data-name="Path 1056" d="M638.829,12.361a2.867,2.867,0,0,1-1.434-.383l-7.571-4.371a2.876,2.876,0,0,1-1.434-2.484V-3.62A2.876,2.876,0,0,1,629.824-6.1l7.571-4.371a2.875,2.875,0,0,1,2.868,0L647.835-6.1a2.877,2.877,0,0,1,1.434,2.484V5.123a2.875,2.875,0,0,1-1.434,2.484l-7.571,4.371A2.868,2.868,0,0,1,638.829,12.361Zm0-21.022a.674.674,0,0,0-.335.089L630.923-4.2a.673.673,0,0,0-.335.581V5.123a.672.672,0,0,0,.334.581l7.572,4.371a.671.671,0,0,0,.67,0L646.736,5.7a.671.671,0,0,0,.335-.581V-3.62a.672.672,0,0,0-.335-.581l-7.571-4.371A.669.669,0,0,0,638.829-8.661Z" transform="translate(-628.39 10.858)" fill="#b2dbf1" stroke="rgba(0,0,0,0)" stroke-width="1"/>
    </g>
    <g id="Group_329" data-name="Group 329" transform="translate(230.346 -231.608)">
      <path id="Path_1057" data-name="Path 1057" d="M594.866,25.3a14.055,14.055,0,0,1-7.029-1.877L532.379-8.6a14.1,14.1,0,0,1-7.029-12.175V-84.808a14.1,14.1,0,0,1,7.029-12.175L587.836-129a14.1,14.1,0,0,1,14.059,0l55.457,32.018a14.1,14.1,0,0,1,7.029,12.175v64.037A14.1,14.1,0,0,1,657.352-8.6L601.9,23.422A14.054,14.054,0,0,1,594.866,25.3Zm0-153.982a11.857,11.857,0,0,0-5.93,1.584L533.478-95.08a11.894,11.894,0,0,0-5.93,10.272v64.037a11.894,11.894,0,0,0,5.93,10.272l55.457,32.018a11.9,11.9,0,0,0,11.861,0L656.253-10.5a11.894,11.894,0,0,0,5.93-10.272V-84.808a11.894,11.894,0,0,0-5.93-10.272L600.8-127.1A11.855,11.855,0,0,0,594.866-128.682Z" transform="translate(-525.35 130.879)" fill="#b2dbf1" stroke="rgba(0,0,0,0)" stroke-width="1"/>
    </g>
    <g id="Group_330" data-name="Group 330" transform="translate(73.284 -310.609)">
      <path id="Path_1058" data-name="Path 1058" d="M237.546-154.43a14.061,14.061,0,0,1-7.03-1.877l-55.457-32.019A14.1,14.1,0,0,1,168.03-200.5v-64.036a14.1,14.1,0,0,1,7.029-12.175l55.457-32.018a14.1,14.1,0,0,1,14.059,0l55.458,32.018a14.1,14.1,0,0,1,7.029,12.175V-200.5a14.1,14.1,0,0,1-7.029,12.175l-55.458,32.019A14.057,14.057,0,0,1,237.546-154.43Zm0-153.982a11.858,11.858,0,0,0-5.931,1.584L176.158-274.81a11.894,11.894,0,0,0-5.93,10.272V-200.5a11.894,11.894,0,0,0,5.93,10.272l55.457,32.019a11.9,11.9,0,0,0,11.861,0l55.457-32.019a11.894,11.894,0,0,0,5.931-10.272v-64.036a11.894,11.894,0,0,0-5.931-10.272l-55.457-32.018A11.855,11.855,0,0,0,237.546-308.412Z" transform="translate(-168.03 310.609)" fill="#b2dbf1" stroke="rgba(0,0,0,0)" stroke-width="1"/>
    </g>
    <path id="Path_1059" data-name="Path 1059" d="M601.216,187.578v12.208a2.471,2.471,0,0,0,1.235,2.14l10.573,6.1a2.473,2.473,0,0,0,2.471,0l10.572-6.1a2.471,2.471,0,0,0,1.235-2.14V187.578a2.47,2.47,0,0,0-1.235-2.14l-10.572-6.1a2.471,2.471,0,0,0-2.471,0l-10.573,6.1A2.47,2.47,0,0,0,601.216,187.578Z" transform="translate(-337.522 -274.4)" fill="#b2dbf1" stroke="rgba(0,0,0,0)" stroke-width="1"/>
    <path id="Path_1060" data-name="Path 1060" d="M298.242-28.741v12.208a2.471,2.471,0,0,0,1.235,2.14l10.572,6.1a2.472,2.472,0,0,0,2.471,0l10.572-6.1a2.471,2.471,0,0,0,1.235-2.14V-28.741a2.471,2.471,0,0,0-1.235-2.14l-10.572-6.1a2.472,2.472,0,0,0-2.471,0l-10.572,6.1A2.471,2.471,0,0,0,298.242-28.741Z" transform="translate(-167.722 -153.165)" fill="#b2dbf1" stroke="rgba(0,0,0,0)" stroke-width="1"/>
    <path id="Path_1061" data-name="Path 1061" d="M382.135,40.794v8.588A1.738,1.738,0,0,0,383,50.887l7.438,4.294a1.736,1.736,0,0,0,1.738,0l7.438-4.294a1.738,1.738,0,0,0,.869-1.505V40.794a1.739,1.739,0,0,0-.869-1.505l-7.438-4.294a1.736,1.736,0,0,0-1.738,0L383,39.288A1.739,1.739,0,0,0,382.135,40.794Z" transform="translate(-214.74 -193.561)" fill="#b2dbf1" stroke="rgba(0,0,0,0)" stroke-width="1"/>
    <path id="Path_1062" data-name="Path 1062" d="M510.472,25.353V43.66a3.7,3.7,0,0,0,1.852,3.208l15.854,9.153a3.706,3.706,0,0,0,3.7,0l15.854-9.153a3.7,3.7,0,0,0,1.852-3.208V25.353a3.706,3.706,0,0,0-1.852-3.209l-15.854-9.153a3.706,3.706,0,0,0-3.7,0l-15.854,9.153A3.705,3.705,0,0,0,510.472,25.353Z" transform="translate(-286.665 -181.082)" fill="#b2dbf1" stroke="rgba(0,0,0,0)" stroke-width="1"/>
    <path id="Path_1063" data-name="Path 1063" d="M843.566,104.723v24.221a4.9,4.9,0,0,0,2.452,4.245l20.975,12.11a4.9,4.9,0,0,0,4.9,0l20.975-12.11a4.9,4.9,0,0,0,2.451-4.245V104.723a4.9,4.9,0,0,0-2.451-4.245l-20.975-12.11a4.9,4.9,0,0,0-4.9,0l-20.975,12.11A4.9,4.9,0,0,0,843.566,104.723Z" transform="translate(-473.346 -223.236)" fill="#b2dbf1" stroke="rgba(0,0,0,0)" stroke-width="1"/>
    <path id="Path_1064" data-name="Path 1064" d="M582.176,119.759v5.385a1.091,1.091,0,0,0,.545.944l4.663,2.692a1.09,1.09,0,0,0,1.09,0l4.663-2.692a1.091,1.091,0,0,0,.545-.944v-5.385a1.09,1.09,0,0,0-.545-.944l-4.663-2.692a1.092,1.092,0,0,0-1.09,0l-4.663,2.692A1.09,1.09,0,0,0,582.176,119.759Z" transform="translate(-326.852 -239.078)" fill="#b2dbf1" stroke="rgba(0,0,0,0)" stroke-width="1"/>
    <path id="Path_1065" data-name="Path 1065" d="M676.674,282.357v5.385a1.089,1.089,0,0,0,.545.944l4.663,2.692a1.089,1.089,0,0,0,1.09,0l4.663-2.692a1.09,1.09,0,0,0,.545-.944v-5.385a1.09,1.09,0,0,0-.545-.944l-4.663-2.692a1.089,1.089,0,0,0-1.09,0l-4.663,2.692A1.089,1.089,0,0,0,676.674,282.357Z" transform="translate(-379.812 -330.205)" fill="#b2dbf1" stroke="rgba(0,0,0,0)" stroke-width="1"/>
    <path id="Path_1066" data-name="Path 1066" d="M389.923-7.22v5.385a1.088,1.088,0,0,0,.545.943L395.13,1.8a1.09,1.09,0,0,0,1.09,0l4.663-2.692a1.089,1.089,0,0,0,.545-.943V-7.22a1.089,1.089,0,0,0-.545-.944l-4.663-2.692a1.09,1.09,0,0,0-1.09,0l-4.663,2.692A1.089,1.089,0,0,0,389.923-7.22Z" transform="translate(-219.105 -167.913)" fill="#b2dbf1" stroke="rgba(0,0,0,0)" stroke-width="1"/>
    <path id="Path_1067" data-name="Path 1067" d="M550.946,149.137v5.385a1.09,1.09,0,0,0,.545.944l4.663,2.692a1.089,1.089,0,0,0,1.09,0l4.663-2.692a1.089,1.089,0,0,0,.545-.944v-5.385a1.089,1.089,0,0,0-.545-.943l-4.663-2.692a1.089,1.089,0,0,0-1.09,0l-4.663,2.692A1.09,1.09,0,0,0,550.946,149.137Z" transform="translate(-309.349 -255.543)" fill="#b2dbf1" stroke="rgba(0,0,0,0)" stroke-width="1"/>
    <path id="Path_1068" data-name="Path 1068" d="M199.908.244V5.628a1.09,1.09,0,0,0,.545.944l4.663,2.692a1.089,1.089,0,0,0,1.09,0l4.663-2.692a1.09,1.09,0,0,0,.545-.944V.244a1.09,1.09,0,0,0-.545-.944l-4.663-2.692a1.089,1.089,0,0,0-1.09,0L200.453-.7A1.09,1.09,0,0,0,199.908.244Z" transform="translate(-112.612 -172.096)" fill="#b2dbf1" stroke="rgba(0,0,0,0)" stroke-width="1"/>
  </g>
</svg>
