<svg xmlns="http://www.w3.org/2000/svg" width="40" height="40" viewBox="0 0 40 40">
  <g id="next_newa" transform="translate(-1560 -2682)">
    <rect id="Rectangle_41" data-name="Rectangle 41" width="40" height="40" rx="5" transform="translate(1560 2682)" fill="#2685ca"/>
    <path id="Path_100" data-name="Path 100" d="M9.961-9.643a.577.577,0,0,0-.167-.385l-7.8-7.8A.577.577,0,0,0,1.607-18a.577.577,0,0,0-.385.167l-.837.837a.577.577,0,0,0-.167.385.577.577,0,0,0,.167.385L6.964-9.643.385-3.064a.577.577,0,0,0-.167.385.545.545,0,0,0,.167.385l.837.837a.577.577,0,0,0,.385.167.577.577,0,0,0,.385-.167l7.8-7.8A.577.577,0,0,0,9.961-9.643Z" transform="translate(1574.782 2711.997)" fill="#fff"/>
  </g>
</svg>
