<svg xmlns="http://www.w3.org/2000/svg" width="12.857" height="12.857" viewBox="0 0 12.857 12.857">
  <path id="Path_536" data-name="Path 536" d="M7.5-8.3a.264.264,0,0,0-.268-.268H6.7a.264.264,0,0,0-.268.268v2.946H4.554a.264.264,0,0,0-.268.268v.536a.264.264,0,0,0,.268.268H7.232A.264.264,0,0,0,7.5-4.554Zm3.482,2.946A4.558,4.558,0,0,1,6.429-.8,4.558,4.558,0,0,1,1.875-5.357,4.558,4.558,0,0,1,6.429-9.911,4.558,4.558,0,0,1,10.982-5.357Zm1.875,0a6.43,6.43,0,0,0-6.429-6.429A6.43,6.43,0,0,0,0-5.357,6.43,6.43,0,0,0,6.429,1.071,6.43,6.43,0,0,0,12.857-5.357Z" transform="translate(0 11.786)" fill="#333"/>
</svg>
