<svg xmlns="http://www.w3.org/2000/svg" width="17.143" height="11.786" viewBox="0 0 17.143 11.786">
  <path id="Path_537" data-name="Path 537" d="M8.571-8.571v3.214H5.357V-8.571ZM9.643-3.214H4.286v1.071H9.643Zm0-6.429H4.286v5.357H9.643ZM15-3.214H10.714v1.071H15Zm0-2.143H10.714v1.071H15ZM15-7.5H10.714v1.071H15Zm0-2.143H10.714v1.071H15ZM2.143-1.607a.539.539,0,0,1-.536.536.539.539,0,0,1-.536-.536V-9.643H2.143Zm13.929,0a.539.539,0,0,1-.536.536H3.122a1.637,1.637,0,0,0,.092-.536v-9.107H16.071Zm1.071-10.179h-15v1.071H0v9.107A1.608,1.608,0,0,0,1.607,0H15.536a1.608,1.608,0,0,0,1.607-1.607Z" transform="translate(0 11.786)" fill="#333"/>
</svg>
