<svg xmlns="http://www.w3.org/2000/svg" width="25" height="21" viewBox="0 0 25 21">
  <path id="Path_44" data-name="Path 44" d="M25,3.564a1.053,1.053,0,0,0-1.042-1.05H1.042A1.053,1.053,0,0,0,0,3.564v2.1a1.053,1.053,0,0,0,1.042,1.05H23.958A1.053,1.053,0,0,0,25,5.664Zm0-8.4a1.053,1.053,0,0,0-1.042-1.05H1.042A1.053,1.053,0,0,0,0-4.836v2.1a1.053,1.053,0,0,0,1.042,1.05H23.958A1.053,1.053,0,0,0,25-2.736Zm0-8.4a1.053,1.053,0,0,0-1.042-1.05H1.042A1.053,1.053,0,0,0,0-13.236v2.1a1.053,1.053,0,0,0,1.042,1.05H23.958A1.053,1.053,0,0,0,25-11.136Z" transform="translate(0 14.286)" fill="#1d96cf"/>
</svg>
