<svg xmlns="http://www.w3.org/2000/svg" width="20.4" height="17" viewBox="0 0 20.4 17">
  <path id="Path_441" data-name="Path 441" d="M20.4.164a.856.856,0,0,0-.85-.85H.85A.856.856,0,0,0,0,.164v1.7a.856.856,0,0,0,.85.85h18.7a.856.856,0,0,0,.85-.85Zm0-6.8a.856.856,0,0,0-.85-.85H.85a.856.856,0,0,0-.85.85v1.7a.856.856,0,0,0,.85.85h18.7a.856.856,0,0,0,.85-.85Zm0-6.8a.856.856,0,0,0-.85-.85H.85a.856.856,0,0,0-.85.85v1.7a.856.856,0,0,0,.85.85h18.7a.856.856,0,0,0,.85-.85Z" transform="translate(0 14.286)" fill="#fff"/>
</svg>
