<svg xmlns="http://www.w3.org/2000/svg" xmlns:xlink="http://www.w3.org/1999/xlink" width="450" height="260" viewBox="0 0 450 260">
  <defs>
    <clipPath id="clip-path">
      <rect id="Rectangle_512" data-name="Rectangle 512" width="450" height="260" transform="translate(0 1102)" fill="#fff" stroke="#707070" stroke-width="1"/>
    </clipPath>
  </defs>
  <g id="Mask_Group_488" data-name="Mask Group 488" transform="translate(0 -1102)" clip-path="url(#clip-path)">
    <g id="Group_325" data-name="Group 325" transform="translate(0 1130.667)">
      <g id="Group_320" data-name="Group 320" transform="translate(16.467 8.611)">
        <path id="Path_1039" data-name="Path 1039" d="M-21.373,157.052a8.481,8.481,0,0,1-4.243-1.133l-31.195-18.01a8.511,8.511,0,0,1-4.243-7.349V94.539A8.51,8.51,0,0,1-56.81,87.19l31.195-18.01a8.51,8.51,0,0,1,8.486,0L14.065,87.19a8.51,8.51,0,0,1,4.243,7.349V130.56a8.511,8.511,0,0,1-4.243,7.349l-31.195,18.01A8.486,8.486,0,0,1-21.373,157.052Zm0-86.615a6.094,6.094,0,0,0-3.047.814l-31.195,18.01a6.112,6.112,0,0,0-3.047,5.278V130.56a6.111,6.111,0,0,0,3.047,5.277l31.195,18.011a6.112,6.112,0,0,0,6.094,0l31.195-18.011a6.111,6.111,0,0,0,3.047-5.277V94.539a6.112,6.112,0,0,0-3.047-5.278l-31.195-18.01A6.093,6.093,0,0,0-21.373,70.438Z" transform="translate(61.053 -68.047)" fill="#b2dcf1"/>
      </g>
      <g id="Group_321" data-name="Group 321" transform="translate(131.907 122.562)">
        <path id="Path_1040" data-name="Path 1040" d="M208.333,369.1a6.283,6.283,0,0,1-3.141-.839l-21.765-12.566a6.3,6.3,0,0,1-3.141-5.441V325.12a6.3,6.3,0,0,1,3.141-5.441l21.765-12.567a6.3,6.3,0,0,1,6.282,0l21.766,12.567a6.3,6.3,0,0,1,3.141,5.441v25.133a6.3,6.3,0,0,1-3.141,5.441L211.474,368.26A6.282,6.282,0,0,1,208.333,369.1Zm0-60.434a3.892,3.892,0,0,0-1.945.519L184.622,321.75a3.9,3.9,0,0,0-1.945,3.369v25.133a3.9,3.9,0,0,0,1.945,3.37l21.765,12.566a3.9,3.9,0,0,0,3.891,0l21.766-12.566a3.9,3.9,0,0,0,1.945-3.37V325.12a3.9,3.9,0,0,0-1.945-3.369l-21.766-12.567A3.894,3.894,0,0,0,208.333,308.665Z" transform="translate(-180.285 -306.274)" fill="#b2dcf1"/>
      </g>
      <g id="Group_322" data-name="Group 322" transform="translate(221.195 151.54)">
        <path id="Path_1041" data-name="Path 1041" d="M378.311,392.123a3.122,3.122,0,0,1-1.561-.417l-8.239-4.757a3.129,3.129,0,0,1-1.561-2.7v-9.514a3.131,3.131,0,0,1,1.56-2.7l8.239-4.757a3.13,3.13,0,0,1,3.122,0l8.239,4.757a3.131,3.131,0,0,1,1.561,2.7v9.514a3.129,3.129,0,0,1-1.561,2.7l-8.239,4.757A3.121,3.121,0,0,1,378.311,392.123Zm0-22.877a.729.729,0,0,0-.365.1l-8.239,4.757a.732.732,0,0,0-.365.632v9.514a.731.731,0,0,0,.365.631l8.239,4.758a.734.734,0,0,0,.73,0l8.239-4.758a.73.73,0,0,0,.365-.631v-9.514a.733.733,0,0,0-.365-.632l-8.238-4.756A.729.729,0,0,0,378.311,369.246Z" transform="translate(-366.951 -366.855)" fill="#b2dcf1"/>
      </g>
      <g id="Group_323" data-name="Group 323" transform="translate(0 50.586)">
        <path id="Path_1042" data-name="Path 1042" d="M-19.832,325.755a15.3,15.3,0,0,1-7.649-2.043L-87.83,288.869a15.342,15.342,0,0,1-7.65-13.249V205.934a15.341,15.341,0,0,1,7.65-13.249l60.349-34.842a15.341,15.341,0,0,1,15.3,0l60.349,34.842a15.342,15.342,0,0,1,7.649,13.249V275.62a15.343,15.343,0,0,1-7.649,13.249l-60.349,34.842A15.3,15.3,0,0,1-19.832,325.755Zm0-167.565a12.9,12.9,0,0,0-6.454,1.724l-60.349,34.843a12.943,12.943,0,0,0-6.454,11.178V275.62A12.944,12.944,0,0,0-86.634,286.8l60.349,34.843a12.944,12.944,0,0,0,12.908,0L46.972,286.8a12.944,12.944,0,0,0,6.454-11.178V205.934a12.943,12.943,0,0,0-6.454-11.178l-60.349-34.843A12.9,12.9,0,0,0-19.832,158.19Z" transform="translate(95.48 -155.799)" fill="#b2dcf1"/>
      </g>
      <g id="Group_324" data-name="Group 324" transform="translate(292.104 148.767)">
        <path id="Path_1043" data-name="Path 1043" d="M590.844,531.014a15.3,15.3,0,0,1-7.65-2.043l-60.349-34.843a15.34,15.34,0,0,1-7.649-13.249V411.193a15.34,15.34,0,0,1,7.649-13.249L583.194,363.1a15.345,15.345,0,0,1,15.3,0l60.349,34.843a15.341,15.341,0,0,1,7.649,13.249v69.686a15.341,15.341,0,0,1-7.649,13.249l-60.349,34.843A15.3,15.3,0,0,1,590.844,531.014Zm0-167.565a12.91,12.91,0,0,0-6.454,1.723L524.04,400.015a12.943,12.943,0,0,0-6.454,11.178v69.686a12.943,12.943,0,0,0,6.454,11.178L584.389,526.9a12.946,12.946,0,0,0,12.908,0l60.35-34.843a12.944,12.944,0,0,0,6.453-11.178V411.193a12.944,12.944,0,0,0-6.453-11.178L597.3,365.172A12.906,12.906,0,0,0,590.844,363.449Z" transform="translate(-515.195 -361.059)" fill="#b2dcf1"/>
      </g>
      <path id="Path_1044" data-name="Path 1044" d="M92.99,238.161v13.285a2.688,2.688,0,0,0,1.344,2.329l11.5,6.643a2.69,2.69,0,0,0,2.689,0l11.5-6.643a2.688,2.688,0,0,0,1.344-2.329V238.161a2.689,2.689,0,0,0-1.344-2.328l-11.5-6.642a2.69,2.69,0,0,0-2.689,0l-11.5,6.642A2.689,2.689,0,0,0,92.99,238.161Z" transform="translate(-2.839 -143.312)" fill="#b2dcf1"/>
      <path id="Path_1045" data-name="Path 1045" d="M-29.673,279.572v13.285a2.689,2.689,0,0,0,1.344,2.329l11.505,6.642a2.686,2.686,0,0,0,2.688,0l11.505-6.642a2.689,2.689,0,0,0,1.344-2.329V279.572a2.688,2.688,0,0,0-1.344-2.329L-14.135,270.6a2.688,2.688,0,0,0-2.688,0l-11.505,6.643A2.688,2.688,0,0,0-29.673,279.572Z" transform="translate(61.15 -164.915)" fill="#b2dcf1"/>
      <path id="Path_1046" data-name="Path 1046" d="M447.3,403.292v9.346a1.891,1.891,0,0,0,.945,1.638l8.094,4.673a1.892,1.892,0,0,0,1.891,0l8.094-4.673a1.891,1.891,0,0,0,.946-1.638v-9.346a1.891,1.891,0,0,0-.946-1.638l-8.094-4.673a1.892,1.892,0,0,0-1.891,0l-8.094,4.673A1.891,1.891,0,0,0,447.3,403.292Z" transform="translate(-187.674 -230.899)" fill="#b2dcf1"/>
      <path id="Path_1047" data-name="Path 1047" d="M238.922,375.16v19.921a4.031,4.031,0,0,0,2.016,3.491l17.252,9.961a4.031,4.031,0,0,0,4.032,0l17.252-9.961a4.031,4.031,0,0,0,2.016-3.491V375.16a4.032,4.032,0,0,0-2.016-3.492l-17.252-9.96a4.031,4.031,0,0,0-4.032,0l-17.252,9.96A4.032,4.032,0,0,0,238.922,375.16Z" transform="translate(-78.967 -212.348)" fill="#b2dcf1"/>
      <path id="Path_1048" data-name="Path 1048" d="M572.018,454.9v26.358a5.335,5.335,0,0,0,2.667,4.619l22.826,13.179a5.334,5.334,0,0,0,5.335,0l22.825-13.179a5.335,5.335,0,0,0,2.668-4.619V454.9a5.334,5.334,0,0,0-2.668-4.619L602.845,437.1a5.336,5.336,0,0,0-5.335,0l-22.826,13.179A5.334,5.334,0,0,0,572.018,454.9Z" transform="translate(-252.733 -251.586)" fill="#b2dcf1"/>
      <path id="Path_1049" data-name="Path 1049" d="M328.363,354.9v5.86a1.186,1.186,0,0,0,.593,1.027l5.075,2.929a1.185,1.185,0,0,0,1.186,0l5.075-2.929a1.187,1.187,0,0,0,.593-1.027V354.9a1.187,1.187,0,0,0-.593-1.027l-5.075-2.93a1.188,1.188,0,0,0-1.186,0l-5.075,2.93A1.186,1.186,0,0,0,328.363,354.9Z" transform="translate(-125.626 -206.932)" fill="#b2dcf1"/>
      <path id="Path_1050" data-name="Path 1050" d="M241.038,271.145V277a1.185,1.185,0,0,0,.593,1.026l5.075,2.93a1.183,1.183,0,0,0,1.186,0l5.075-2.93a1.185,1.185,0,0,0,.593-1.026v-5.86a1.188,1.188,0,0,0-.593-1.027l-5.075-2.93a1.188,1.188,0,0,0-1.186,0l-5.075,2.93A1.187,1.187,0,0,0,241.038,271.145Z" transform="translate(-80.071 -163.239)" fill="#b2dcf1"/>
      <path id="Path_1051" data-name="Path 1051" d="M55.756,54.16v5.86a1.186,1.186,0,0,0,.593,1.027l5.075,2.93a1.185,1.185,0,0,0,1.186,0l5.075-2.93a1.186,1.186,0,0,0,.593-1.027V54.16a1.185,1.185,0,0,0-.593-1.026L62.609,50.2a1.185,1.185,0,0,0-1.186,0l-5.075,2.93A1.185,1.185,0,0,0,55.756,54.16Z" transform="translate(16.585 -50.045)" fill="#b2dcf1"/>
      <path id="Path_1052" data-name="Path 1052" d="M544.394,415.516v5.86a1.184,1.184,0,0,0,.593,1.026l5.075,2.93a1.183,1.183,0,0,0,1.186,0l5.075-2.93a1.184,1.184,0,0,0,.593-1.026v-5.86a1.187,1.187,0,0,0-.593-1.027l-5.075-2.93a1.187,1.187,0,0,0-1.186,0l-5.075,2.93A1.187,1.187,0,0,0,544.394,415.516Z" transform="translate(-238.323 -238.553)" fill="#b2dcf1"/>
      <path id="Path_1053" data-name="Path 1053" d="M151.811,293.022v5.86a1.185,1.185,0,0,0,.593,1.026l5.074,2.93a1.184,1.184,0,0,0,1.186,0l5.074-2.93a1.185,1.185,0,0,0,.593-1.026v-5.86a1.187,1.187,0,0,0-.593-1.027l-5.074-2.93a1.189,1.189,0,0,0-1.186,0l-5.074,2.93A1.187,1.187,0,0,0,151.811,293.022Z" transform="translate(-33.524 -174.652)" fill="#b2dcf1"/>
    </g>
  </g>
</svg>
