<svg xmlns="http://www.w3.org/2000/svg" width="73.343" height="80" viewBox="0 0 73.343 80">
  <path id="Path_491" data-name="Path 491" d="M84,288.986h37.228l-18.9-10.369Zm-6.807,3.759-4.738,2.616h60.568l-4.841-2.616Zm-11.057,8.438h73.343v-2.063H66.135Zm62,8.874h2.645l1.563,12.684,1.545-12.684h2.652v18.6h-1.633l-.006-14.641-1.72,14.641h-1.7l-1.712-14.641-.007,14.641h-1.632Zm-8.1,18.6v-18.6h6.457V313.2H121.8v4.131h4.361v3.142H121.8v5.039h4.861v3.143Zm-8.8,0v-18.6H113v7.326h3.435v-7.326H118.2v18.6h-1.766v-8.131H113v8.131Zm-3.218-6.858,1.706,1.117a11.935,11.935,0,0,1-1.308,4.562,2.681,2.681,0,0,1-2.317,1.489q-1.739,0-2.859-2.533a17.508,17.508,0,0,1-1.119-6.927,18.539,18.539,0,0,1,1.125-7.216q1.124-2.572,2.959-2.572,1.6,0,2.6,2.022a11.263,11.263,0,0,1,.893,3.433l-1.742.884a5.763,5.763,0,0,0-.645-2.282,1.406,1.406,0,0,0-1.194-.836q-.971,0-1.575,1.485a13.733,13.733,0,0,0-.606,4.806,14.942,14.942,0,0,0,.6,5.017q.6,1.5,1.549,1.5.7,0,1.211-.952a8.729,8.729,0,0,0,.727-3m-14.169.831,1.718-.363a7.134,7.134,0,0,0,.625,2.7,1.42,1.42,0,0,0,1.273.862,1.379,1.379,0,0,0,1.277-.766,3.6,3.6,0,0,0,.431-1.792,3.118,3.118,0,0,0-.181-1.125,1.823,1.823,0,0,0-.632-.8,13.172,13.172,0,0,0-1.4-.814,4.529,4.529,0,0,1-1.98-1.848,8.058,8.058,0,0,1-.8-3.754,9.184,9.184,0,0,1,.376-2.666,4.119,4.119,0,0,1,1.087-1.887,2.439,2.439,0,0,1,1.711-.65,2.643,2.643,0,0,1,2.462,1.55,9.118,9.118,0,0,1,.869,4.138l-1.766.131a5.125,5.125,0,0,0-.481-2.07,1.206,1.206,0,0,0-1.107-.632,1.344,1.344,0,0,0-1.192.675,2.137,2.137,0,0,0-.278,1.161,2.285,2.285,0,0,0,.262,1.13,3.749,3.749,0,0,0,1.614,1.251,6.308,6.308,0,0,1,1.894,1.338,4.828,4.828,0,0,1,.962,1.891,10.809,10.809,0,0,1,.347,2.961,10.43,10.43,0,0,1-.415,3,4.4,4.4,0,0,1-1.178,2.074,2.74,2.74,0,0,1-1.9.68,2.769,2.769,0,0,1-2.54-1.628,11.493,11.493,0,0,1-1.058-4.736m-3.706-1.35H87.752l1.178-6.883Zm3.229,7.377h-1.9l-.753-4.234h-3.5l-.725,4.234H84.623l3.386-18.6h1.866Zm-15.251,0V310.212h1.766v15.3H84.26v3.143ZM71.711,313.2h.847a4.079,4.079,0,0,1,1.262.126,1.4,1.4,0,0,1,.707.831,4.361,4.361,0,0,1,.279,1.68,4.792,4.792,0,0,1-.2,1.45,1.908,1.908,0,0,1-.549.918,2.288,2.288,0,0,1-1.387.294h-.961Zm-1.766,15.455v-18.6h2.825a4.967,4.967,0,0,1,2.091.278,3.262,3.262,0,0,1,1.255,1.822,10.888,10.888,0,0,1,.506,3.624,12.146,12.146,0,0,1-.291,2.879,5.9,5.9,0,0,1-.738,1.836,2.424,2.424,0,0,1-.912.879,4.878,4.878,0,0,1-1.824.268H71.711v7.013Zm69.534-24.022H66.135v29.385h73.343Zm-73.343,34.7h73.343v-1.861H66.135Zm7,3.759,4.288,2.238h51.009l4.3-2.238Zm48.072,6-18.326,9.532-18.258-9.532Z" transform="translate(-66.135 -278.617)" fill="#0093dd"/>
</svg>
