<svg xmlns="http://www.w3.org/2000/svg" width="19.5" height="13" viewBox="0 0 19.5 13">
  <g id="united-kingdom" transform="translate(0 -85.33)">
    <rect id="Rectangle_57" data-name="Rectangle 57" width="19.5" height="13" transform="translate(0 85.33)" fill="#f0f0f0"/>
    <path id="Path_472" data-name="Path 472" d="M10.969,85.33H8.531v5.281H0v2.437H8.531V98.33h2.437V93.049H19.5V90.611H10.969Z" fill="#d80027"/>
    <g id="Group_25" data-name="Group 25" transform="translate(11.869 94.091)">
      <path id="Path_473" data-name="Path 473" d="M393.785,315.358l4.5,2.5v-2.5Z" transform="translate(-390.657 -315.358)" fill="#0052b4"/>
      <path id="Path_474" data-name="Path 474" d="M311.652,315.358l7.63,4.239v-1.2l-5.473-3.04Z" transform="translate(-311.652 -315.358)" fill="#0052b4"/>
      <path id="Path_475" data-name="Path 475" d="M317.25,348.108l-5.6-3.11v3.11Z" transform="translate(-311.652 -343.869)" fill="#0052b4"/>
    </g>
    <path id="Path_476" data-name="Path 476" d="M311.652,315.358l7.63,4.239v-1.2l-5.473-3.04Z" transform="translate(-299.783 -221.267)" fill="#f0f0f0"/>
    <path id="Path_477" data-name="Path 477" d="M311.652,315.358l7.63,4.239v-1.2l-5.473-3.04Z" transform="translate(-299.783 -221.267)" fill="#d80027"/>
    <g id="Group_26" data-name="Group 26" transform="translate(0 94.091)">
      <path id="Path_478" data-name="Path 478" d="M3.441,315.356,0,317.267v-1.911Z" transform="translate(0 -315.356)" fill="#0052b4"/>
      <path id="Path_479" data-name="Path 479" d="M32.15,329.51v3.7H25.491Z" transform="translate(-24.52 -328.971)" fill="#0052b4"/>
    </g>
    <path id="Path_480" data-name="Path 480" d="M5.473,315.358,0,318.4v1.2H0l7.63-4.239Z" transform="translate(0 -221.267)" fill="#d80027"/>
    <g id="Group_27" data-name="Group 27" transform="translate(0 85.33)">
      <path id="Path_481" data-name="Path 481" d="M4.5,133.459l-4.5-2.5v2.5Z" transform="translate(0 -129.22)" fill="#0052b4"/>
      <path id="Path_482" data-name="Path 482" d="M7.63,89.569,0,85.33v1.2l5.473,3.04Z" transform="translate(0 -85.33)" fill="#0052b4"/>
      <path id="Path_483" data-name="Path 483" d="M53.366,85.33l5.6,3.11V85.33Z" transform="translate(-51.334 -85.33)" fill="#0052b4"/>
    </g>
    <path id="Path_484" data-name="Path 484" d="M7.63,89.569,0,85.33v1.2l5.473,3.04Z" fill="#f0f0f0"/>
    <path id="Path_485" data-name="Path 485" d="M7.63,89.569,0,85.33v1.2l5.473,3.04Z" fill="#d80027"/>
    <g id="Group_28" data-name="Group 28" transform="translate(11.869 85.33)">
      <path id="Path_486" data-name="Path 486" d="M421.659,148.358l3.441-1.911v1.911Z" transform="translate(-417.469 -144.118)" fill="#0052b4"/>
      <path id="Path_487" data-name="Path 487" d="M311.652,89.031v-3.7h6.659Z" transform="translate(-311.652 -85.331)" fill="#0052b4"/>
    </g>
    <path id="Path_488" data-name="Path 488" d="M313.81,89.569l5.473-3.04v-1.2h0l-7.63,4.239Z" transform="translate(-299.783)" fill="#d80027"/>
  </g>
</svg>
