<svg xmlns="http://www.w3.org/2000/svg" width="60" height="60" viewBox="0 0 60 60">
  <g id="next" transform="translate(-1725 -375)">
    <circle id="Ellipse_51" data-name="Ellipse 51" cx="30" cy="30" r="30" transform="translate(1725 375)" fill="#fff" opacity="0.5"/>
    <g id="return" transform="translate(1742 395)">
      <path id="Path_469" data-name="Path 469" d="M.547,62.961H23.892l-8.727-8.726a.536.536,0,0,1,.757-.757l9.641,9.641a.536.536,0,0,1,0,.757h0l-9.641,9.641a.536.536,0,0,1-.771-.744l.013-.013,8.727-8.728H.547a.536.536,0,0,1,0-1.071Z" transform="translate(-0.011 -53.327)" fill="#2685ca"/>
      <path id="Path_470" data-name="Path 470" d="M.536,73.673a.535.535,0,0,0,.379-.156l9.641-9.641a.536.536,0,0,0,0-.757L.915,53.477a.536.536,0,0,0-.757.757L9.419,63.5.157,72.758a.536.536,0,0,0,.378.915Z" transform="translate(14.997 -53.327)" fill="#2685ca"/>
      <path id="Path_471" data-name="Path 471" d="M.544,246.256H25.182a.536.536,0,1,0,0-1.071H.544a.536.536,0,0,0,0,1.071Z" transform="translate(-0.008 -235.551)" fill="#2685ca"/>
    </g>
  </g>
</svg>
